<?xml version="1.0" standalone="no"?><!DOCTYPE svg PUBLIC "-//W3C//DTD SVG 1.1//EN" "http://www.w3.org/Graphics/SVG/1.1/DTD/svg11.dtd"><svg class="icon" width="200px" height="200.00px" viewBox="0 0 1024 1024" version="1.1" xmlns="http://www.w3.org/2000/svg"><path d="M512 512m-512 0a512 512 0 1 0 1024 0 512 512 0 1 0-1024 0Z" fill="#5D78E7" /><path d="M279.7 325.4s28.2-64 43.6-81.3 43.7-27 43.7-27-22.5-12.3-28.2-30.8c-5.7-18.5-8.8-48.8-8.8-48.8s-21.1 29.1-32 37.9c-11 8.8-39.8 12.6-39.8 12.6s21.7 27.8 24.3 45.2c2.6 17.5-2.8 92.2-2.8 92.2z" fill="#FFFFFF" /><path d="M923.6 375.4c-7.4-18.4-28.3-27.2-46.6-19.8-18.4 7.4-27.2 28.3-19.8 46.6 44.3 110 47.5 199.1-56.2 285.7l12.3-45.9c41-153-49.8-310.2-202.7-351.2-153-41-310.2 49.8-351.2 202.7l-26.5 98.9c-42.7-60.3-74-160.5-74-285.2 0-19.8-16.1-35.8-35.8-35.8S87 287.4 87 307.2c0 160.7 49.3 297.6 123.5 368.3L165.1 845c87.6 91.3 210.7 148.2 346.9 148.2 79.9 0 155.2-19.7 221.6-54.2l38.5-143.9c181.7-109.3 225.2-236.8 151.5-419.7z m-499.9 87c-4.4 16.4-21.2 26.1-37.6 21.7-16.4-4.4-26.1-21.2-21.7-37.6 4.4-16.4 21.2-26.1 37.5-21.8h0.1l79.2 21.2c5.4 1.5 8.7 7 7.2 12.5-1.5 5.5-7.2 8.7-12.5 7.3L424.6 452c0.3 3.4 0 6.9-0.9 10.4z m43 191c-34.6-9.3-10.4-119.4-10.4-119.4l79.1 21.2s-34.1 107.5-68.7 98.2z m239.2-136.6c-1.5 5.5-7.2 8.7-12.5 7.3l-51.2-13.7c0.3 3.4 0 6.9-1 10.3-4.4 16.4-21.2 26.1-37.6 21.7-16.4-4.4-26.1-21.2-21.7-37.6 4.4-16.4 21.2-26.1 37.5-21.8h0.1l79.2 21.2c5.5 1.5 8.7 7.1 7.2 12.6z" fill="#FFFFFF" /></svg>