<?xml version="1.0" standalone="no"?><!DOCTYPE svg PUBLIC "-//W3C//DTD SVG 1.1//EN" "http://www.w3.org/Graphics/SVG/1.1/DTD/svg11.dtd"><svg class="icon" width="200px" height="200.00px" viewBox="0 0 1024 1024" version="1.1" xmlns="http://www.w3.org/2000/svg"><path d="M776.104 69.428H247.896c-64.82 0-117.38 49.529-117.38 110.625v663.752c0 61.095 52.56 110.625 117.38 110.625h352.14c39.295 0.581 54.904-0.803 58.689-0.803v0.803l234.758-221.248V180.053c0-61.096-52.552-110.625-117.379-110.625zM295.688 298.145h434.771c9.592-0.001 17.369 7.778 17.369 17.37 0 9.593-7.777 17.37-17.369 17.37H295.688c-9.595 0-17.37-7.777-17.37-17.37s7.775-17.37 17.37-17.37z m0 156.853h434.771c9.592 0 17.369 7.779 17.369 17.37 0 9.593-7.777 17.37-17.369 17.37H295.688c-9.595 0-17.37-7.777-17.37-17.37s7.775-17.37 17.37-17.37z m-0.001 191.593c-9.593 0-17.369-7.776-17.369-17.37 0-9.593 7.776-17.368 17.369-17.368h365.291c9.594 0 17.369 7.777 17.369 17.368 0 9.594-7.775 17.37-17.369 17.37H295.687z m363.039 252.526V788.492c0-30.563 26.293-55.311 58.689-55.311h117.379L658.726 899.117z" /></svg>