<?xml version="1.0" standalone="no"?><!DOCTYPE svg PUBLIC "-//W3C//DTD SVG 1.1//EN" "http://www.w3.org/Graphics/SVG/1.1/DTD/svg11.dtd"><svg class="icon" width="200px" height="199.80px" viewBox="0 0 1025 1024" version="1.1" xmlns="http://www.w3.org/2000/svg"><path d="M1016.787478 576.868174c-2.515478 15.226435-5.698783 30.163478-9.527652 44.944696-49.107478 2.137043-99.105391 31.810783-128.578783 82.899478-29.562435 51.177739-30.185739 109.478957-7.323826 153.110261-21.481739 21.147826-44.833391 40.403478-69.765565 57.544348-5.409391 3.717565-11.085913 7.056696-16.65113 10.573913-7.101217 4.474435-14.224696 8.94887-21.570783 13.089391-6.92313 3.917913-14.024348 7.524174-21.125565 11.085913-6.277565 3.183304-12.599652 6.255304-19.010783 9.171478-7.769043 3.494957-15.60487 6.834087-23.552 9.950609-16.695652 6.589217-33.858783 12.221217-51.355826 17.051826C621.968696 944.729043 571.236174 916.257391 512.222609 916.257391s-109.746087 28.471652-136.125217 70.010435c-17.497043-4.830609-34.615652-10.462609-51.311304-17.051826-7.94713-3.138783-15.805217-6.455652-23.574261-9.950609-6.433391-2.916174-12.733217-6.010435-19.010783-9.171478-7.101217-3.561739-14.224696-7.168-21.147826-11.085913-7.323826-4.140522-14.425043-8.614957-21.526261-13.089391-5.587478-3.494957-11.264-6.856348-16.695652-10.573913-12.265739-8.414609-24.219826-17.252174-35.706435-26.690783-11.820522-9.750261-23.129043-20.079304-34.03687-30.853565 22.861913-43.609043 22.238609-101.910261-7.323826-153.110261-29.473391-51.088696-79.471304-80.762435-128.578783-82.899478-3.82887-14.736696-6.989913-29.718261-9.527652-44.944696-2.181565-13.222957-3.940174-26.534957-5.231304-40.025043C1.202087 522.395826 0.222609 507.859478 0.222609 493.122783c0-14.781217 0.979478-29.295304 2.203826-43.742609 1.313391-13.467826 3.072-26.824348 5.231304-40.025043 2.515478-15.248696 5.698783-30.185739 9.527652-44.944696 49.107478-2.137043 99.08313-31.833043 128.578783-82.899478 29.562435-51.2 30.185739-109.478957 7.323826-153.110261C174.569739 107.27513 197.89913 88.019478 222.831304 70.90087c5.431652-3.717565 11.130435-7.056696 16.695652-10.596174 7.101217-4.474435 14.224696-8.904348 21.526261-13.06713 6.945391-3.895652 14.046609-7.501913 21.147826-11.085913 6.277565-3.161043 12.599652-6.233043 19.010783-9.149217 7.769043-3.517217 15.60487-6.834087 23.574261-9.97287C341.481739 10.440348 358.622609 4.830609 376.119652 0 402.476522 41.472 453.209043 69.988174 512.222609 69.988174c58.991304 0 109.746087-28.493913 136.102957-69.988174C665.822609 4.830609 682.963478 10.440348 699.65913 17.029565c7.94713 3.161043 15.805217 6.455652 23.574261 9.97287 6.41113 2.916174 12.733217 6.010435 19.010783 9.171478 7.101217 3.561739 14.224696 7.168 21.125565 11.063652 7.323826 4.162783 14.447304 8.614957 21.548522 13.089391 5.565217 3.494957 11.264 6.856348 16.673391 10.573913 24.932174 17.14087 48.283826 36.396522 69.765565 57.544348-22.861913 43.631304-22.238609 101.910261 7.323826 153.110261 29.473391 51.088696 79.471304 80.762435 128.578783 82.899478 3.82887 14.736696 6.989913 29.696 9.527652 44.966957 2.181565 13.200696 3.940174 26.512696 5.209043 40.002783 1.246609 14.447304 2.226087 28.961391 2.226087 43.742609 0 14.736696-0.979478 29.250783-2.226087 43.720348C1020.727652 550.310957 1018.969043 563.645217 1016.787478 576.868174zM512.222609 315.258435c-98.214957 0-177.842087 79.649391-177.842087 177.842087 0 98.214957 79.62713 177.842087 177.842087 177.842087s177.819826-79.62713 177.819826-177.842087C690.042435 394.907826 610.437565 315.258435 512.222609 315.258435zM512.222609 626.354087c-73.594435 0-133.209043-59.65913-133.209043-133.231304s59.63687-133.209043 133.209043-133.209043c73.572174 0 133.209043 59.63687 133.209043 133.209043S585.794783 626.354087 512.222609 626.354087z" /></svg>